<?xml version="1.0" encoding="UTF-8"?>
<svg id="Layer_1" xmlns="http://www.w3.org/2000/svg" version="1.1" viewBox="0 0 100 100">
  <!-- Generator: Adobe Illustrator 30.5.1, SVG Export Plug-In . SVG Version: 2.1.4 Build 3)  -->
  <defs>
    <style>
      .st0 {
        fill: #16181a;
      }

      .st1 {
        isolation: isolate;
      }

      .st2 {
        fill: #f1f2ef;
      }
    </style>
  </defs>
  <rect class="st0" width="100" height="100"/>
  <g class="st1">
    <path class="st2" d="M53,21.3c2.7,0,5.2.2,7.5.7,2.3.5,4.2,1.3,5.8,2.4,1.6,1.1,2.9,2.6,3.7,4.4.9,1.8,1.3,4.1,1.3,6.8s-.7,5.3-2,7.2c-1.3,1.9-3.3,3.5-5.8,4.7,3.5,1,6.2,2.8,7.9,5.3,1.7,2.5,2.6,5.6,2.6,9.2s-.6,5.4-1.7,7.5c-1.1,2.1-2.6,3.8-4.5,5.2-1.9,1.3-4.1,2.3-6.5,3s-4.9,1-7.5,1h-27.8V21.3h27ZM51.4,44.5c2.3,0,4.1-.5,5.5-1.6,1.4-1.1,2.2-2.8,2.2-5.2s-.2-2.4-.7-3.3c-.5-.9-1.1-1.5-1.9-2-.8-.5-1.7-.8-2.8-1-1-.2-2.1-.3-3.3-.3h-11.8v13.4h12.8ZM52.1,68.9c1.2,0,2.4-.1,3.5-.4,1.1-.2,2.1-.6,3-1.2.9-.6,1.5-1.3,2.1-2.3s.8-2.2.8-3.7c0-2.9-.8-5.1-2.5-6.3-1.7-1.3-3.9-1.9-6.6-1.9h-13.8v15.8h13.5Z"/>
  </g>
</svg>